<?xml version="1.0" encoding="UTF-8"?>
<svg id="Layer_1" data-name="Layer 1" xmlns="http://www.w3.org/2000/svg" xmlns:xlink="http://www.w3.org/1999/xlink" viewBox="0 0 800 800">
  <defs>
    <style>
      .cls-1 {
        fill: none;
      }

      .cls-2 {
        clip-path: url(#clippath);
      }

      .cls-3 {
        fill: #fff;
      }

      .cls-4 {
        fill: #8194bb;
      }

      .cls-5 {
        fill: #98afdd;
      }

      .cls-6 {
        fill: #9fb6e5;
      }

      .cls-7 {
        fill: #bbcff2;
      }
    </style>
    <clipPath id="clippath">
      <path class="cls-1" d="M504.21,357.11v85.79c0,10.69-5.7,20.58-14.97,25.93l-74.26,42.89c-9.26,5.35-20.68,5.35-29.94,0l-74.28-42.89c-9.26-5.35-14.97-15.23-14.97-25.93v-85.78c0-10.7,5.71-20.58,14.97-25.93l74.28-42.89c9.26-5.35,20.68-5.35,29.94,0l74.26,42.89c9.26,5.35,14.97,15.23,14.97,25.93Z"/>
    </clipPath>
  </defs>
  <g class="cls-2">
    <path class="cls-7" d="M504.21,357.11v85.79c0,10.69-5.7,20.58-14.97,25.93l-74.26,42.89c-9.26,5.35-20.68,5.35-29.94,0l-74.28-42.89c-9.26-5.35-14.97-15.23-14.97-25.93v-85.78c0-10.7,5.71-20.58,14.97-25.93l74.28-42.89c9.26-5.35,20.68-5.35,29.94,0l74.26,42.89c9.26,5.35,14.97,15.23,14.97,25.93Z"/>
    <g>
      <path class="cls-6" d="M319.8,334.37c-7.62,4.4-7.62,11.6,0,16l66.34,38.31c7.62,4.4,20.09,4.4,27.71,0l66.34-38.31c7.62-4.4,7.62-11.6,0-16l-66.34-38.31c-7.62-4.4-20.09-4.4-27.71,0l-66.34,38.31Z"/>
      <path class="cls-4" d="M303.36,439.73c0,8.8,6.24,19.6,13.86,24l66.34,38.31c7.62,4.4,13.86,.8,13.86-8v-76.61c0-8.8-6.24-19.6-13.86-24l-66.34-38.31c-7.62-4.4-13.86-.8-13.86,8v76.61Z"/>
      <path class="cls-5" d="M482.78,463.73c7.62-4.4,13.86-15.2,13.86-24v-76.61c0-8.8-6.24-12.4-13.86-8l-66.34,38.31c-7.62,4.4-13.86,15.2-13.86,24v76.61c0,8.8,6.24,12.4,13.86,8l66.34-38.31Z"/>
    </g>
  </g>
  <ellipse class="cls-3" cx="400.48" cy="362.28" rx="14.7" ry="8.49"/>
  <ellipse class="cls-3" cx="324.48" cy="415.28" rx="8.49" ry="14.7" transform="translate(-164.17 217.88) rotate(-30)"/>
  <ellipse class="cls-3" cx="373.48" cy="443.28" rx="8.49" ry="14.7" transform="translate(-171.61 246.14) rotate(-30)"/>
  <ellipse class="cls-3" cx="373.48" cy="412.28" rx="8.49" ry="14.7" transform="translate(-156.11 241.98) rotate(-30)"/>
  <ellipse class="cls-3" cx="325.48" cy="445.28" rx="8.49" ry="14.7" transform="translate(-179.04 222.4) rotate(-30)"/>
  <ellipse class="cls-3" cx="324.48" cy="384.28" rx="8.49" ry="14.7" transform="translate(-148.67 213.73) rotate(-30)"/>
  <ellipse class="cls-3" cx="374.48" cy="474.28" rx="8.49" ry="14.7" transform="translate(-186.97 250.79) rotate(-30)"/>
  <ellipse class="cls-3" cx="447.48" cy="336.28" rx="14.7" ry="8.49"/>
  <ellipse class="cls-3" cx="400.48" cy="317.28" rx="14.7" ry="8.49"/>
  <ellipse class="cls-3" cx="472.48" cy="443.28" rx="14.7" ry="8.49" transform="translate(-147.65 630.82) rotate(-60)"/>
  <ellipse class="cls-3" cx="428.48" cy="417.28" rx="14.7" ry="8.49" transform="translate(-147.14 579.71) rotate(-60)"/>
  <ellipse class="cls-3" cx="354.48" cy="340.28" rx="14.7" ry="8.49"/>
</svg>